<svg version="1.1" id="Layer_1" xmlns="http://www.w3.org/2000/svg" xmlns:xlink="http://www.w3.org/1999/xlink" x="0px" y="0px"
	 viewBox="0 0 266 55" style="enable-background:new 0 0 266 55;" xml:space="preserve" width="140" height="29">
<style type="text/css">
	.st0{fill:#CE2E29;}
	.st1{fill:#FFFFFF;}
</style>
<rect x="0" y="0.7" class="st0" width="53.6" height="53.6"/>
<path class="st1" d="M36.9,30.8c-2.2,0-4-1.8-4-4c0-2.2,1.8-4,4-4c2.2,0,4,1.8,4,4C41,28.9,39.2,30.8,36.9,30.8 M36.9,17.6
	c-1.5,0-2.8,0.4-4,1v-9h-5v17.2c0,5,4.1,9.1,9.1,9.1c5,0,9.1-4.1,9.1-9.1C46,21.7,42,17.6,36.9,17.6"/>
<path class="st1" d="M16.8,37.7c-2.2,0-4-1.8-4-4c0-2.2,1.8-4,4-4c2.2,0,4,1.8,4,4C20.9,35.9,19,37.7,16.8,37.7 M25.6,31.2
	c0-0.1-0.1-0.2-0.1-0.3c-0.3-0.9-0.4-1.9-0.4-2.9V16.4h-5v8.7c-1-0.4-2.1-0.6-3.2-0.6c-5,0-9.1,4.1-9.1,9.1c0,5,4.1,9.1,9.1,9.1
	c3.1,0,5.8-1.6,7.5-3.9c1.5,1.7,3.4,3,5.6,3.9l2.5-4.4v0C29.1,37.1,26.6,34.5,25.6,31.2"/>
<path class="st1" d="M63.3,42.9L63.3,42.9c0-6.6,5-12.1,12-12.1c4,0,6.5,1.1,8.9,3.1L81.6,37c-1.8-1.5-3.5-2.5-6.5-2.5
	c-4.3,0-7.5,3.7-7.5,8.2v0.1c0,4.8,3.1,8.3,7.9,8.3c2.2,0,4.2-0.7,5.6-1.8V45h-5.9v-3.5H85v9.7c-2.3,2-5.6,3.6-9.7,3.6
	C68.1,54.8,63.3,49.6,63.3,42.9"/>
<path class="st1" d="M99,42.7c2.9,0,4.8-1.5,4.8-3.9v-0.1c0-2.5-1.8-3.8-4.8-3.8h-5.9v7.8H99z M89,31.2h10.3c2.9,0,5.2,0.9,6.7,2.3
	c1.2,1.3,1.9,3,1.9,5v0.1c0,3.8-2.3,6.1-5.5,7l6.3,8.8h-4.8l-5.7-8.1h-0.1h-5v8.1H89V31.2z"/>
<path class="st1" d="M131,42.9L131,42.9c0-4.6-3.3-8.3-7.9-8.3c-4.6,0-7.8,3.7-7.8,8.2v0.1c0,4.5,3.3,8.2,7.9,8.2
	C127.7,51,131,47.4,131,42.9 M111,42.9L111,42.9c0-6.6,5-12.1,12.2-12.1c7.1,0,12.1,5.4,12.1,11.9v0.1c0,6.5-5,12-12.2,12
	C116,54.8,111,49.4,111,42.9"/>
<path class="st1" d="M139.7,44.6V31.2h4.1v13.2c0,4.3,2.2,6.6,5.9,6.6c3.6,0,5.8-2.2,5.8-6.5V31.2h4.1v13.1c0,6.9-3.9,10.4-10,10.4
	C143.6,54.8,139.7,51.3,139.7,44.6"/>
<path class="st1" d="M172.9,43.3c3.1,0,5-1.7,5-4.1v-0.1c0-2.7-2-4.1-5-4.1h-4.7v8.3H172.9z M164.1,31.2h9.1c5.4,0,8.8,3.1,8.8,7.7
	V39c0,5.2-4.2,7.9-9.3,7.9h-4.6v7.5h-4.1V31.2z"/>
<path class="st1" d="M73,20.1c4.9,0,8-3.3,8-7.8v-0.1c0-4.5-3.2-7.9-8-7.9h-4.6v15.8H73z M64.4,0.6H73c7.3,0,12.3,5,12.3,11.5v0.1
	c0,6.5-5,11.6-12.3,11.6h-8.6V0.6z"/>
<polygon class="st1" points="89.3,0.6 106.5,0.6 106.5,4.3 93.4,4.3 93.4,10.3 105,10.3 105,13.9 93.4,13.9 93.4,20.2 106.7,20.2
	106.7,23.8 89.3,23.8 "/>
<polygon class="st1" points="109.9,0.6 114.4,0.6 121.4,18.4 128.3,0.6 132.7,0.6 123.1,24 119.5,24 "/>
<path class="st1" d="M146.9,20.2c2.8,0,4.5-1.1,4.5-3.2v-0.1c0-2-1.6-3.1-4.8-3.1h-6.5v6.4H146.9z M145.7,10.4c2.6,0,4.4-1,4.4-3.1
	V7.2c0-1.8-1.5-2.9-4.1-2.9h-5.9v6.2H145.7z M136.2,0.6h10.4c2.6,0,4.7,0.7,6.1,2.1c1,1,1.6,2.3,1.6,3.8v0.1c0,2.8-1.6,4.3-3.3,5.2
	c2.7,0.9,4.6,2.5,4.6,5.6v0.1c0,4.1-3.4,6.4-8.6,6.4h-10.7V0.6z"/>
<path class="st1" d="M169.5,12.1c2.9,0,4.8-1.5,4.8-3.9V8.2c0-2.5-1.8-3.8-4.8-3.8h-5.9v7.8H169.5z M159.4,0.6h10.3
	c2.9,0,5.2,0.9,6.7,2.3c1.2,1.3,1.9,3,1.9,5V8c0,3.8-2.3,6.1-5.5,7l6.3,8.8h-4.8l-5.7-8.1h-0.1h-5v8.1h-4.1V0.6z"/>
<rect x="183.1" y="0.6" class="st1" width="4.1" height="23.2"/>
<path class="st1" d="M199.7,20.1c4.9,0,8-3.3,8-7.8v-0.1c0-4.5-3.2-7.9-8-7.9h-4.6v15.8H199.7z M191.1,0.6h8.6
	c7.3,0,12.3,5,12.3,11.5v0.1c0,6.5-5,11.6-12.3,11.6h-8.6V0.6z"/>
<path class="st1" d="M215.5,12.3L215.5,12.3c0-6.6,5-12.1,12-12.1c4,0,6.5,1.1,8.9,3.1l-2.6,3.1c-1.8-1.5-3.5-2.5-6.5-2.5
	c-4.3,0-7.5,3.7-7.5,8.2v0.1c0,4.8,3.1,8.3,7.9,8.3c2.2,0,4.2-0.7,5.6-1.8v-4.3h-5.9v-3.5h9.9v9.7c-2.3,2-5.6,3.6-9.7,3.6
	C220.2,24.2,215.5,19,215.5,12.3"/>
<polygon class="st1" points="241.1,0.6 258.3,0.6 258.3,4.3 245.2,4.3 245.2,10.3 256.8,10.3 256.8,13.9 245.2,13.9 245.2,20.2
	258.5,20.2 258.5,23.8 241.1,23.8 "/>
<path class="st1" d="M263.8,1.9h0.2c0.2,0,0.4-0.1,0.4-0.3c0-0.2-0.1-0.3-0.4-0.3c-0.1,0-0.2,0-0.2,0V1.9z M263.8,3h-0.4V1.2
	c0.2,0,0.4-0.1,0.7-0.1c0.3,0,0.5,0.1,0.6,0.1c0.1,0.1,0.2,0.2,0.2,0.4c0,0.2-0.2,0.4-0.4,0.4v0c0.2,0.1,0.3,0.2,0.3,0.4
	c0.1,0.3,0.1,0.4,0.1,0.5h-0.5c-0.1-0.1-0.1-0.2-0.1-0.4c0-0.2-0.1-0.3-0.4-0.3h-0.2V3z M262.7,2c0,0.8,0.6,1.4,1.4,1.4
	c0.8,0,1.4-0.6,1.4-1.4c0-0.8-0.6-1.5-1.4-1.5C263.3,0.6,262.7,1.2,262.7,2 M266,2c0,1-0.8,1.8-1.9,1.8c-1,0-1.9-0.8-1.9-1.8
	c0-1,0.8-1.8,1.9-1.8C265.2,0.2,266,1,266,2"/>
</svg>
