<?xml version="1.0" encoding="utf-8"?><svg width="180" height="146" viewBox="0 0 180 146" xmlns="http://www.w3.org/2000/svg" xmlns:xlink="http://www.w3.org/1999/xlink"><svg preserveAspectRatio="xMidYMid" width="31" height="35" viewBox="-5 -5 31 35" id="icon-bell" y="34" xmlns="http://www.w3.org/2000/svg"><defs><style>.aacls-3{fill:#a56ea3;filter:url(#aacolor-overlay-1)}</style><filter id="aacolor-overlay-1" filterUnits="userSpaceOnUse"><feFlood flood-color="#e0e0e0" flood-opacity="1"/><feComposite operator="in" in2="SourceGraphic"/><feBlend in2="SourceGraphic" result="colorOverlay"/></filter><filter id="aacolor-overlay-2" filterUnits="userSpaceOnUse"><feFlood flood-color="#30aed6" flood-opacity="1"/><feComposite operator="in" in2="SourceGraphic"/><feBlend in2="SourceGraphic" result="colorOverlay"/></filter></defs><g id="aaicon-bellsvg"><path d="M15.971 18.236c-1.17-.989-2.007-3.617-2.007-6.705 0-2.337-1.536-4.318-3.673-5.044A1.806 1.806 0 0 0 8.5 5c-.903 0-1.647.644-1.791 1.487-2.137.726-3.673 2.707-3.673 5.044 0 3.087-.836 5.715-2.007 6.705A2.886 2.886 0 0 0 0 20.438C0 21.421.815 22 1.822 22h4.857c0 .984.815 1.781 1.821 1.781s1.822-.797 1.822-1.781h4.857C16.185 22 17 21.421 17 20.438c0-.846-.375-1.649-1.029-2.202zM1.568 20.335c0-.341.152-.664.414-.887 1.688-1.427 2.737-4.295 2.737-8.023 0-2.039 1.696-3.697 3.781-3.697s3.781 1.658 3.781 3.697c0 3.728 1.049 6.596 2.737 8.024.263.223.414.545.414.886H1.568z" id="aapath-1" class="aacls-3" fill-rule="evenodd"/></g></svg><svg preserveAspectRatio="xMidYMid" width="31" height="35" viewBox="-5 -5 31 35" id="icon-bell-empty" x="37" xmlns="http://www.w3.org/2000/svg"><defs><style>.abcls-3{fill:#a56ea3;filter:url(#abcolor-overlay-1)}</style><filter id="abcolor-overlay-1" filterUnits="userSpaceOnUse"><feFlood flood-color="#e0e0e0" flood-opacity="1"/><feComposite operator="in" in2="SourceGraphic"/><feBlend in2="SourceGraphic" result="colorOverlay"/></filter><filter id="abcolor-overlay-2" filterUnits="userSpaceOnUse"><feFlood flood-color="#30aed6" flood-opacity="1"/><feComposite operator="in" in2="SourceGraphic"/><feBlend in2="SourceGraphic" result="colorOverlay"/></filter></defs><g id="abicon-bellsvg"><path d="M15.971 18.236c-1.17-.989-2.007-3.617-2.007-6.705 0-2.337-1.536-4.318-3.673-5.044A1.806 1.806 0 0 0 8.5 5c-.903 0-1.647.644-1.791 1.487-2.137.726-3.673 2.707-3.673 5.044 0 3.087-.836 5.715-2.007 6.705A2.886 2.886 0 0 0 0 20.438C0 21.421.815 22 1.822 22h4.857c0 .984.815 1.781 1.821 1.781s1.822-.797 1.822-1.781h4.857C16.185 22 17 21.421 17 20.438c0-.846-.375-1.649-1.029-2.202zM1.568 20.335c0-.341.152-.664.414-.887 1.688-1.427 2.737-4.295 2.737-8.023 0-2.039 1.696-3.697 3.781-3.697s3.781 1.658 3.781 3.697c0 3.728 1.049 6.596 2.737 8.024.263.223.414.545.414.886H1.568z" id="abpath-1" class="abcls-3" fill-rule="evenodd"/><use xmlns:xlink="http://www.w3.org/1999/xlink" xlink:href="#circle-1" stroke="#13191b" fill="none" filter="none"/></g></svg><svg preserveAspectRatio="xMidYMid" width="37" height="34" viewBox="-5 -5 37 34" id="icon-birthday" xmlns="http://www.w3.org/2000/svg"><defs><style>.accls-birthday{fill:#fff}</style></defs><path d="M26.999 7.101l-1.212-.153-.811.952-.231-1.245-1.119-.505 1.069-.618.12-1.263.892.864 1.193-.276-.518 1.151.617 1.093zm-4.925.527l-.407 1.66-1.036-1.331-1.663.128.922-1.43-.621-1.58 1.606.447 1.279-1.105.07 1.706 1.412.898-1.562.607zm-.048 4.825v2.272s.141.451-.434.451c-.576 0-13.76-1.651-13.76-1.651s-.435-.112-.435-.45v-1.972s.015-.476.29-.601c.274-.124.639-.205 1.158-.15l9.85 1.051-6.518-3.241v.84c0 .166-.13.3-.29.3h-1.014a.294.294 0 0 1-.289-.3v-.75l1.593-.9v-.164l.145.013 9.27 4.502s.434.132.434.75zM11.308 2.851s-.161-.482-.435-.6c-.273-.118-.246-1.115.145-1.351.383-.231.307-.868.153-.891.121.028.751.188.571 1.191 0 0 .265-.168.29-.45 0 0 .365.586.145 1.201-.22.614-.486.474-.869.9zm.579.3c.16 0 .29.134.29.3v.825l-1.593.825v-1.65c0-.166.129-.3.289-.3h1.014zM5.085 7.704l-.447.63-.212-.76-.719-.257.625-.436.003-.789.599.491.72-.231-.255.74.442.646-.756-.034zm-2.757.109L1.53 8.854 1.21 7.53l-1.211-.507 1.091-.69.049-1.354.994.897 1.241-.329-.476 1.244.718 1.15-1.288-.128zm-.62 1.973l.477-.846.37.927.938.233-.727.625.103.99-.819-.541-.876.38.221-.96-.643-.756.956-.052zm3.516.116c.453-.218 4.563-2.36 5.36-2.775v-.976l1.593-.9v1.125l-1.593.825V8.24l-4.49 2.262-.145 10.203s-.057.565.289.6c.347.035.869 0 .869 0s.237.056.29-.3c.019-.126.024-.892.023-1.826l14.598 1.928c.003 1.322.008 2.448.008 2.448s-.023.414-.724.45c-.701.036-15.933-1.8-15.933-1.8s-.58-.067-.579-.6V10.653s-.067-.509.434-.751zm2.192 7.942c-.007-1.371-.019-2.668-.019-2.668s.081-.538.579-.451c.499.088 13.616 1.651 13.616 1.651s.461.087.434.6c-.011.219-.013 1.455-.011 2.797L7.416 17.844zm16.251-8.006l-.553-.43.666-.198.224-.685.382.599.69.007-.429.569.203.689-.647-.247-.566.419.03-.723z" id="acpath-1" class="accls-birthday" fill-rule="evenodd"/></svg><svg preserveAspectRatio="xMidYMid" width="23" height="23" viewBox="-5 -5 23 23" id="icon-calendar" x="156" y="95" xmlns="http://www.w3.org/2000/svg"><defs><style>.adcls-cal{fill:#757d80}</style></defs><path d="M12 13H1a1 1 0 0 1-1-1V2a1 1 0 0 1 1-1h.984v.953c0 1.016 1.547 1.063 1.547 1.063 1.5 0 1.485-1.078 1.485-1.078V1h2.968L8 1.922c-.031 1.109 1.5 1.094 1.5 1.094 1.422-.032 1.5-1.11 1.5-1.11V1h1a1 1 0 0 1 1 1v10a1 1 0 0 1-1 1zM3 4H1v2h2V4zm0 3H1v2h2V7zm0 3H1v2h2v-2zm3-6H4v2h2V4zm0 3H4v2h2V7zm0 3H4v2h2v-2zm3-6H7v2h2V4zm0 3H7v2h2V7zm0 3H7v2h2v-2zm3-6h-2v2h2V4zm0 3h-2v2h2V7zm0 3h-2v2h2v-2zM9.5 2a.5.5 0 0 1-.5-.5v-1a.5.5 0 0 1 1 0v1a.5.5 0 0 1-.5.5zm-6 0a.5.5 0 0 1-.5-.5v-1a.5.5 0 0 1 1 0v1a.5.5 0 0 1-.5.5z" id="adpath-1" class="adcls-cal" fill-rule="evenodd"/></svg><svg preserveAspectRatio="xMidYMid" width="20" height="17" viewBox="-5 -5 20 17" id="icon-checkmark" x="131" y="103" xmlns="http://www.w3.org/2000/svg"><defs><style>.aecheckmark{fill:#fff;fill-rule:evenodd}</style></defs><path d="M9.987 1.107l-6.31 5.884-.178-.161-.179.161L.01 4.107l1.219-1.099 2.234 1.947L8.768.008l1.219 1.099z" class="aecheckmark"/></svg><svg viewBox="-5 -5 30 28" width="30" height="28" id="icon-comment" x="37" y="35" xmlns="http://www.w3.org/2000/svg"><path fill="#30a1d6" d="M10 2.1c4.4 0 7.9 2.6 7.9 5.8s-3.5 5.8-7.9 5.8h-.5c-.3 0-.5 0-.8-.1l-.6-.1-.4.5c-.2.2-1.4 1.4-2.5 2 .2-.6.7-1.6.7-2.2V13l-.6-.3c-2-1-3.1-2.7-3.1-4.7-.1-3.3 3.5-5.9 7.8-5.9m0-1.6C4.8.5.5 3.8.5 7.8c0 2.5 1.5 4.7 4 6 0 1.1-.6 2.3-.9 2.9v.2c0 .3.2.5.5.5h.1c1.9-.3 3.9-2 4.3-2.5.4.1.7.1 1 .1h.5c5.2 0 9.5-3.3 9.5-7.3S15.2.5 10 .5z"/></svg><svg preserveAspectRatio="xMidYMid" width="30" height="25" viewBox="-5 -5 30 25" id="icon-connections" y="69" xmlns="http://www.w3.org/2000/svg"><defs><style>.agicon-tab{fill:#e0e0e0}</style></defs><path d="M19.267 14h-2.311c-.03-.46-.075-.88-.143-1.253h1.754c0-1.375-.945-2.565-2.311-3.124a2.87 2.87 0 0 1-.842.52c-.536-.462-1.214-.848-2.102-1.243.074-.114.119-.241.181-.361.301.239.642.387 1.007.387 1.113 0 2.054-1.283 2.054-2.801 0-1.518-.941-2.801-2.054-2.801-.237 0-.463.069-.678.175a6.051 6.051 0 0 0-.528-1.205A2.707 2.707 0 0 1 14.5 2c1.823 0 3.3 1.847 3.3 4.125 0 .93-.249 1.785-.664 2.475C18.841 9.427 20 11.03 20 12.875v.375c0 .414-.328.75-.733.75zM14 13.594v.469a.936.936 0 0 1-.933.937H.933A.936.936 0 0 1 0 14.063v-.469c0-2.307 1.475-4.31 3.645-5.345A5.925 5.925 0 0 1 2.8 5.156C2.8 2.309 4.68 0 7 0c2.32 0 4.2 2.309 4.2 5.156a5.925 5.925 0 0 1-.845 3.093C12.525 9.284 14 11.287 14 13.594zM7 1.406c-1.518 0-2.8 1.718-2.8 3.75 0 2.033 1.282 3.75 2.8 3.75 1.518 0 2.8-1.717 2.8-3.75 0-2.032-1.282-3.75-2.8-3.75zm2.417 7.963c-.684.592-1.516.944-2.417.944-.901 0-1.733-.352-2.417-.944-1.881.756-3.183 2.365-3.183 4.225h11.2c0-1.86-1.302-3.469-3.183-4.225z" id="agpath-1" class="agicon-tab" fill-rule="evenodd"/></svg><svg preserveAspectRatio="xMidYMid" width="24" height="24" viewBox="-5 -5 24 24" id="icon-dish" x="156" xmlns="http://www.w3.org/2000/svg"><defs><style>.ahcls-2{fill:#e0e0e0}</style></defs><path d="M13.793 10.356L9.192 5.742l1.366-1.371c.05.008.099.016.15.016.604 0 1.093-.491 1.093-1.096 0-.605-.489-1.096-1.093-1.096-.603 0-1.092.491-1.092 1.096 0 .052.008.101.015.151l-1.367 1.37-4.6-4.614a.66.66 0 0 0-.935 0A7.805 7.805 0 0 0 .437 5.746c0 1.435.39 2.807 1.106 4.009A2.184 2.184 0 0 0 0 11.839a2.19 2.19 0 0 0 2.185 2.192 2.18 2.18 0 0 0 2.079-1.547 7.75 7.75 0 0 0 3.997 1.108 7.762 7.762 0 0 0 5.532-2.298.665.665 0 0 0 0-.938zm-11.608 2.36a.876.876 0 0 1 0-1.754.876.876 0 0 1 0 1.754zm6.076-.45a6.449 6.449 0 0 1-4.598-1.91 6.486 6.486 0 0 1-1.904-4.61c0-1.519.515-2.959 1.46-4.119l9.148 9.175a6.438 6.438 0 0 1-4.106 1.464z" id="ahpath-1" class="ahcls-2" fill-rule="evenodd"/></svg><svg preserveAspectRatio="xMidYMid" width="19" height="21" viewBox="-5 -5 19 21" id="icon-download" x="49" y="121" xmlns="http://www.w3.org/2000/svg"><defs><style>.aicls-download{fill:#757d80}</style></defs><path d="M9.076 5.001H6.072L6.073 0H3.067v5.001H-.004l4.582 5.12 4.498-5.12z" id="aipath-1" class="aicls-download" fill-rule="evenodd"/></svg><svg preserveAspectRatio="xMidYMid" width="23" height="24" viewBox="-5 -5 23 24" id="icon-edit" x="156" y="47" xmlns="http://www.w3.org/2000/svg"><defs><style>.ajicon-edit{fill:#7c8588}</style></defs><path d="M12.872 5.085l-1.41 1.442c.017.174.025.338.025.495-.002.227-.018.46-.049.693l1.21 1.266c.165.173.198.44.08.651l-1.004 1.794a.508.508 0 0 1-.586.247l-1.653-.476c-.285.226-.591.42-.913.578l-.468 1.83a.523.523 0 0 1-.501.399h-.001l-1.996-.007a.522.522 0 0 1-.499-.401l-.414-1.634a4.965 4.965 0 0 1-1.331-.748l-1.505.414a.508.508 0 0 1-.582-.252L.283 9.574a.555.555 0 0 1 .086-.651l1.043-1.066a5.348 5.348 0 0 1-.021-1.567L.181 5.024a.553.553 0 0 1-.08-.65L1.105 2.58a.51.51 0 0 1 .586-.248l1.653.476a4.942 4.942 0 0 1 1.388-.779L5.183.394a.52.52 0 0 1 .498-.391h.002L7.638.01a.522.522 0 0 1 .498.402L8.6 2.244c.343.171.667.383.97.635l1.816-.499a.508.508 0 0 1 .581.252l.992 1.802a.554.554 0 0 1-.087.651zm-1.606-1.559l-1.691.465a.502.502 0 0 1-.477-.118 3.986 3.986 0 0 0-1.134-.746.535.535 0 0 1-.302-.36l-.426-1.682-1.165-.004-.426 1.529a.53.53 0 0 1-.353.362 3.949 3.949 0 0 0-1.495.838.505.505 0 0 1-.474.11l-1.524-.44-.604 1.078 1.117 1.169a.554.554 0 0 1 .141.482 4.284 4.284 0 0 0 .025 1.714.554.554 0 0 1-.143.5L1.38 9.4l.596 1.082 1.372-.377a.498.498 0 0 1 .466.108c.427.374.917.647 1.455.813a.53.53 0 0 1 .353.379l.385 1.517 1.199.004.43-1.678a.533.533 0 0 1 .304-.359 4.036 4.036 0 0 0 1.091-.694.5.5 0 0 1 .474-.109l1.525.439.604-1.078-1.117-1.168a.554.554 0 0 1-.141-.481c.049-.265.074-.528.076-.781 0-.185-.015-.379-.047-.611a.552.552 0 0 1 .149-.461l1.308-1.337-.596-1.082zM6.521 9.264h-.008a2.124 2.124 0 0 1-1.535-.668 2.294 2.294 0 0 1-.631-1.601c.004-1.242.979-2.252 2.174-2.252a2.123 2.123 0 0 1 1.542.667c.409.429.633.997.631 1.601-.004 1.242-.979 2.253-2.173 2.253zm.808-3.095a1.107 1.107 0 0 0-.804-.35c-.63 0-1.141.529-1.143 1.18-.001.316.116.614.331.838.214.225.5.349.804.35l.004.538v-.538c.625 0 1.136-.529 1.138-1.18a1.2 1.2 0 0 0-.33-.838z" id="ajpath-1" class="ajicon-edit" fill-rule="evenodd"/></svg><svg preserveAspectRatio="xMidYMid" width="22" height="18" viewBox="-5 -5 22 18" id="icon-email" x="156" y="118" xmlns="http://www.w3.org/2000/svg"><defs><style>.akcls-email{fill:#757d80}</style></defs><path d="M.4.749l4.998 2.778c.168.093.385.138.604.138.219 0 .436-.045.604-.138L11.604.749C11.93.568 12.238 0 11.64 0H.364C-.233 0 .074.568.4.749zm11.342 1.379L6.606 4.907c-.227.122-.385.138-.604.138-.219 0-.377-.016-.604-.138L.262 2.128c-.26-.14-.258.024-.258.151v5.06c0 .289.372.661.661.661h10.674c.289 0 .661-.372.661-.661v-5.06c0-.127.002-.291-.258-.151z" id="akpath-1" class="akcls-email" fill-rule="evenodd"/></svg><svg preserveAspectRatio="xMidYMid" width="24" height="23" viewBox="-5 -5 24 23" id="icon-folder" x="25" y="121" xmlns="http://www.w3.org/2000/svg"><defs><style>.alcls-folder{fill:#e0e0e0}</style></defs><path d="M6.562 1.036L5.25 0H.875A.866.866 0 0 0 0 .857v11.286c0 .473.392.857.875.857h12.25a.866.866 0 0 0 .875-.857V1.893a.866.866 0 0 0-.875-.857H6.562zm-1.856.25L6.019 2.29h6.668v2.801H1.312V1.286h3.394zM1.312 11.714V6.338h11.375v5.376H1.312z" id="alpath-1" class="alcls-folder" fill-rule="evenodd"/></svg><svg preserveAspectRatio="xMidYMid" width="27" height="26" viewBox="-5 -5 27 26" id="icon-heart" x="23" y="94" xmlns="http://www.w3.org/2000/svg"><defs><style>.amcls-heart-outline{fill:#30a1d6}</style></defs><path d="M12.219 1.6a3.197 3.197 0 0 1 3.187 3.2c0 4.714-5.012 8.209-6.906 9.36-1.894-1.151-6.906-4.646-6.906-9.36 0-1.765 1.43-3.2 3.187-3.2.966 0 1.87.434 2.48 1.192a1.59 1.59 0 0 0 2.478 0 3.17 3.17 0 0 1 2.48-1.192m0-1.6A4.761 4.761 0 0 0 8.5 1.786 4.763 4.763 0 0 0 4.781 0C2.141 0 0 2.149 0 4.8 0 11.2 7.437 15.467 8.5 16c1.062-.533 8.5-4.8 8.5-11.2C17 2.149 14.859 0 12.219 0z" id="ampath-1" class="amcls-heart-outline" fill-rule="evenodd"/></svg><svg preserveAspectRatio="xMidYMid" width="27" height="26" viewBox="-5 -5 27 26" id="icon-heart-full" x="50" y="94" xmlns="http://www.w3.org/2000/svg"><defs><style>.ancls-heart-full{fill:#30a1d6}</style></defs><path d="M12.219 0A4.761 4.761 0 0 0 8.5 1.786 4.763 4.763 0 0 0 4.781 0C2.141 0 0 2.149 0 4.8 0 11.2 7.438 15.467 8.5 16c1.063-.533 8.5-4.8 8.5-11.2C17 2.149 14.859 0 12.219 0z" id="anpath-1" class="ancls-heart-full" fill-rule="evenodd"/></svg><svg preserveAspectRatio="xMidYMid" width="27" height="26" viewBox="-5 -5 27 26" id="icon-heart-red" x="77" y="94" xmlns="http://www.w3.org/2000/svg"><defs><style>.aoheart-red{fill:#ec3d34}</style></defs><path d="M12.219 1.6a3.197 3.197 0 0 1 3.187 3.2c0 4.714-5.012 8.209-6.906 9.36-1.894-1.151-6.906-4.646-6.906-9.36 0-1.765 1.43-3.2 3.187-3.2.966 0 1.87.434 2.48 1.192a1.59 1.59 0 0 0 2.478 0 3.17 3.17 0 0 1 2.48-1.192m0-1.6A4.761 4.761 0 0 0 8.5 1.786 4.763 4.763 0 0 0 4.781 0C2.141 0 0 2.149 0 4.8 0 11.2 7.437 15.467 8.5 16c1.062-.533 8.5-4.8 8.5-11.2C17 2.149 14.859 0 12.219 0z" id="aopath-1" class="aoheart-red" fill-rule="evenodd"/></svg><svg preserveAspectRatio="xMidYMid" width="27" height="25" viewBox="-5 -5 27 25" id="icon-loader" x="60" y="69" xmlns="http://www.w3.org/2000/svg"><defs><style>.apcls-2{fill:#e0e0e0}</style></defs><path d="M17 7.5c0-.713-.463-1.31-1.1-1.521a35.18 35.18 0 0 0-.659-5.44.668.668 0 0 0-.651-.535.66.66 0 0 0-.532.269C12.4 2.513 9.563 3.844 6.906 3.844H3.719C1.665 3.844 0 5.429 0 7.5s1.665 3.75 3.719 3.75c0 1.392.561 2.7 1.554 3.648a.369.369 0 0 0 .545-.037l.683-1.089a.377.377 0 0 0-.024-.499c-.525-.537-.821-1.351-.821-2.117h1.25c2.657 0 5.494 1.331 7.152 3.571a.661.661 0 0 0 1.183-.266 35.18 35.18 0 0 0 .659-5.44A1.601 1.601 0 0 0 17 7.5zM3.365 9.883c-1.269 0-2.208-1.103-2.208-2.383s.939-2.415 2.208-2.415h2.52v4.798h-2.52zm10.775 2.826c-1.91-1.692-4.105-2.727-6.748-2.861V5.152c2.643-.134 4.838-1.169 6.748-2.861a36.01 36.01 0 0 1 0 10.418z" id="appath-1" class="apcls-2" fill-rule="evenodd"/></svg><svg preserveAspectRatio="xMidYMid" width="23" height="27" viewBox="-5 -5 23 27" id="icon-lock" y="94" xmlns="http://www.w3.org/2000/svg"><defs><style>.aqlock{fill:#7c8588}</style></defs><path d="M10.5 6.375V4.25C10.5 1.903 8.709 0 6.5 0s-4 1.903-4 4.25v2.125H1c-.552 0-1 .476-1 1.063v8.499C0 16.524.448 17 1 17h11c.552 0 1-.476 1-1.063V7.438c0-.587-.448-1.063-1-1.063h-1.5zM4 4.25c0-1.465 1.122-2.656 2.5-2.656S9 2.785 9 4.25v2.125H4V4.25zm7.5 11.156h-10V7.969h10v7.437z" id="aqpath-1" class="aqlock" fill-rule="evenodd"/></svg><svg preserveAspectRatio="xMidYMid" width="30" height="25" viewBox="-5 -5 30 25" id="icon-multi-user" x="30" y="69" xmlns="http://www.w3.org/2000/svg"><defs><style>.arcls-2{fill:#e0e0e0}</style></defs><path d="M19.267 14h-2.311c-.03-.46-.075-.88-.143-1.253h1.754c0-1.375-.945-2.565-2.311-3.124a2.87 2.87 0 0 1-.842.52c-.536-.462-1.214-.848-2.102-1.243.074-.114.119-.241.181-.361.301.239.642.387 1.007.387 1.113 0 2.054-1.283 2.054-2.801 0-1.518-.941-2.801-2.054-2.801-.237 0-.463.069-.678.175a6.051 6.051 0 0 0-.528-1.205A2.707 2.707 0 0 1 14.5 2c1.823 0 3.3 1.847 3.3 4.125 0 .93-.249 1.785-.664 2.474C18.841 9.427 20 11.03 20 12.875v.375c0 .414-.328.75-.733.75zM14 13.594v.469a.936.936 0 0 1-.933.937H.933A.936.936 0 0 1 0 14.063v-.469c0-2.307 1.475-4.31 3.645-5.345A5.925 5.925 0 0 1 2.8 5.156C2.8 2.309 4.68 0 7 0c2.32 0 4.2 2.309 4.2 5.156a5.925 5.925 0 0 1-.845 3.093C12.525 9.284 14 11.287 14 13.594zM7 1.406c-1.518 0-2.8 1.718-2.8 3.75 0 2.033 1.282 3.75 2.8 3.75 1.518 0 2.8-1.717 2.8-3.75 0-2.032-1.282-3.75-2.8-3.75zm2.417 7.963c-.684.592-1.516.944-2.417.944-.901 0-1.733-.352-2.417-.944-1.881.756-3.183 2.364-3.183 4.225h11.2c0-1.861-1.302-3.469-3.183-4.225z" id="arpath-1" class="arcls-2" fill-rule="evenodd"/></svg><svg preserveAspectRatio="xMidYMid" width="17" height="17" viewBox="-5 -5 17 17" id="icon-negative" x="68" y="121" xmlns="http://www.w3.org/2000/svg"><defs><style>.asicon-negative{fill:#dd4941}</style></defs><path d="M6 4v1H5v1H4v1H3V6H2V5H1V4H0V3h2V0h3v3h2v1H6z" id="aspath-1" class="asicon-negative" fill-rule="evenodd"/></svg><svg viewBox="-5 -5 34 34" width="34" height="34" id="icon-pencil" x="68" xmlns="http://www.w3.org/2000/svg"><path d="M21.71 5L19 2.29a1 1 0 0 0-1.41 0L4 15.85 2 22l6.15-2L21.71 6.45a1 1 0 0 0 .29-.74 1 1 0 0 0-.29-.71zM6.87 18.64l-1.5-1.5L15.92 6.57l1.5 1.5zM18.09 7.41l-1.5-1.5 1.67-1.67 1.5 1.5z" fill="#d9dce2"/></svg><svg viewBox="-5 -5 29 25" width="29" height="25" id="icon-photo" x="102" y="29" xmlns="http://www.w3.org/2000/svg"><path d="M9.5 5.8C8 5.8 6.8 6.9 6.8 8.4 6.8 9.8 8 11 9.5 11s2.7-1.2 2.7-2.6c0-1.5-1.2-2.6-2.7-2.6zm7.2-2.7h-2.2c-.3 0-.6-.2-.7-.5L13.3 1c-.1-.3-.4-.5-.7-.5H6.4c-.3 0-.6.2-.7.5l-.5 1.6c-.1.3-.4.5-.7.5H2.3c-1 0-1.8.8-1.8 1.8v7.9c0 1 .8 1.8 1.8 1.8h14.4c1 0 1.8-.8 1.8-1.8V4.9c0-1-.8-1.8-1.8-1.8zm-7.2 9.7C7 12.8 5 10.8 5 8.4S7 4 9.5 4 14 6 14 8.4s-2 4.4-4.5 4.4zm6.6-6.7c-.3 0-.6-.3-.6-.6s.3-.6.6-.6.6.3.6.6-.3.6-.6.6z"/></svg><svg preserveAspectRatio="xMidYMid" width="24" height="25" viewBox="-5 -5 24 25" id="icon-profile" x="131" y="78" xmlns="http://www.w3.org/2000/svg"><defs><style>.avcls-2{fill:#e0e0e0}</style></defs><path d="M10.355 8.249a5.928 5.928 0 0 0 .845-3.093C11.2 2.308 9.32 0 7 0 4.68 0 2.8 2.308 2.8 5.156c0 1.162.317 2.231.845 3.093C1.475 9.284 0 11.287 0 13.594v.468c0 .518.418.938.933.938h12.134c.515 0 .933-.42.933-.938v-.468c0-2.307-1.475-4.31-3.645-5.345zM7 1.406c1.518 0 2.8 1.718 2.8 3.75 0 2.033-1.282 3.75-2.8 3.75-1.518 0-2.8-1.717-2.8-3.75 0-2.032 1.282-3.75 2.8-3.75zM1.4 13.594c0-1.861 1.302-3.469 3.183-4.225.684.592 1.516.943 2.417.943.901 0 1.733-.351 2.417-.943 1.881.756 3.183 2.364 3.183 4.225H1.4z" id="avpath-1" class="avcls-2" fill-rule="evenodd"/></svg><svg preserveAspectRatio="xMidYMid" width="25" height="25" viewBox="-5 -5 25 25" id="icon-radio" y="121" xmlns="http://www.w3.org/2000/svg"><defs><style>.awradio{fill:#7c8588}</style></defs><path d="M14.778 11.039l-4.93-4.935 1.464-1.465c.053.008.106.017.161.017a1.172 1.172 0 1 0-1.171-1.172c0 .055.009.108.017.161L8.855 5.11 3.925.176a.707.707 0 0 0-1.001 0A8.336 8.336 0 0 0 .468 6.109a8.33 8.33 0 0 0 1.185 4.286 2.337 2.337 0 0 0 .688 4.573 2.335 2.335 0 0 0 2.227-1.654 8.316 8.316 0 0 0 4.283 1.185 8.325 8.325 0 0 0 5.927-2.457.711.711 0 0 0 0-1.003zM2.341 13.562a.937.937 0 1 1 .002-1.874.937.937 0 0 1-.002 1.874zm6.51-.481a6.917 6.917 0 0 1-4.926-2.042 6.929 6.929 0 0 1-2.04-4.93c0-1.624.551-3.164 1.564-4.404l9.801 9.81a6.904 6.904 0 0 1-4.399 1.566z" id="awpath-1" class="awradio" fill-rule="evenodd"/></svg><svg viewBox="-5 -5 29 29" width="29" height="29" id="icon-search" x="102" xmlns="http://www.w3.org/2000/svg"><style>.axst0{fill:#e0e0e0}</style><path id="axpath-1" class="axst0" d="M18.4 17.7l-.6.6c-.2.2-.5.2-.6 0l-5.6-5.6c-1.2.9-2.6 1.4-4.1 1.4C3.7 14.1.7 11 .7 7.3S3.8.5 7.5.5s6.8 3.1 6.8 6.8c0 1.6-.5 3-1.4 4.1l5.6 5.6c0 .2 0 .5-.1.7zM7.3 2.3c-2.8 0-5 2.2-5 5s2.2 5 5 5 5-2.2 5-5c0-2.7-2.2-5-5-5z"/></svg><svg viewBox="-5 -5 24 24" width="24" height="24" id="icon-search-sm" x="156" y="71" xmlns="http://www.w3.org/2000/svg"><style>.ayst0{fill:#757d80}</style><path id="aypath-1" class="ayst0" d="M13.4 12.9l-.5.5c-.1.1-.3.1-.5 0l-4-4.1c-.8.6-1.9 1-3 1C2.7 10.3.5 8.1.5 5.4S2.7.5 5.4.5s4.9 2.2 4.9 4.9c0 1.1-.4 2.2-1 3l4.1 4.1c.1.1.1.3 0 .4zm-8-11.1c-2 0-3.6 1.6-3.6 3.6S3.4 9 5.4 9 9 7.4 9 5.4c.1-2-1.6-3.6-3.6-3.6z"/></svg><svg preserveAspectRatio="xMidYMid" width="25" height="26" viewBox="-5 -5 25 26" id="icon-switch" x="131" y="52" xmlns="http://www.w3.org/2000/svg"><defs><style>.azcls-2{fill:#e0e0e0}</style></defs><path d="M7.5 16C3.364 16 0 12.741 0 8.734c0-2.376 1.211-4.607 3.239-5.968a.72.72 0 0 1 .391-.124.73.73 0 0 1 .619.301.69.69 0 0 1-.184.979C2.429 5.02 1.452 6.819 1.452 8.734c0 3.231 2.713 5.86 6.048 5.86s6.048-2.629 6.048-5.86c0-1.915-.977-3.714-2.613-4.812a.69.69 0 0 1-.184-.979.733.733 0 0 1 .606-.302c.14.002.281.042.404.125C13.789 4.127 15 6.358 15 8.734 15 12.741 11.636 16 7.5 16zm0-9.375a.715.715 0 0 1-.726-.703V.703C6.774.315 7.099 0 7.5 0c.401 0 .726.315.726.703v5.219a.715.715 0 0 1-.726.703z" id="azpath-1" class="azcls-2" fill-rule="evenodd"/></svg><svg preserveAspectRatio="xMidYMid" width="27" height="25" viewBox="-5 -5 27 25" id="icon-tab-ads" x="102" y="54" xmlns="http://www.w3.org/2000/svg"><defs><style>.baicon-tab{fill:#7c8588}</style></defs><path d="M17 7.5c0-.713-.463-1.31-1.1-1.521a35.18 35.18 0 0 0-.659-5.44.668.668 0 0 0-.651-.535.66.66 0 0 0-.532.269C12.4 2.513 9.563 3.844 6.906 3.844H3.719C1.665 3.844 0 5.429 0 7.5s1.665 3.75 3.719 3.75c0 1.392.561 2.7 1.554 3.648a.369.369 0 0 0 .545-.037l.683-1.089a.377.377 0 0 0-.024-.499c-.525-.537-.821-1.351-.821-2.117h1.25c2.657 0 5.494 1.331 7.152 3.571a.66.66 0 0 0 .677.253.667.667 0 0 0 .506-.519 35.18 35.18 0 0 0 .659-5.44A1.601 1.601 0 0 0 17 7.5zM3.365 9.883c-1.269 0-2.208-1.103-2.208-2.383s.939-2.414 2.208-2.414h2.52v4.797h-2.52zm10.775 2.826c-1.91-1.692-4.105-2.727-6.748-2.861V5.152c2.643-.133 4.838-1.169 6.748-2.861a36.01 36.01 0 0 1 0 10.418z" id="bapath-1" class="baicon-tab" fill-rule="evenodd"/></svg><svg preserveAspectRatio="xMidYMid" width="24" height="23" viewBox="-5 -5 24 23" id="icon-tab-projects" x="156" y="24" xmlns="http://www.w3.org/2000/svg"><defs><style>.bbicon-tab{fill:#7c8588}</style></defs><path d="M6.562 1.036L5.25 0H.875A.866.866 0 0 0 0 .857v11.286c0 .473.392.857.875.857h12.25a.866.866 0 0 0 .875-.857V1.893a.866.866 0 0 0-.875-.857H6.562zm-1.856.25L6.019 2.29h6.668v2.8H1.312V1.286h3.394zM1.312 11.714V6.338h11.375v5.376H1.312z" id="bbpath-1" class="bbicon-tab" fill-rule="evenodd"/></svg><svg preserveAspectRatio="xMidYMid" width="25" height="26" viewBox="-5 -5 25 26" id="icon-tab-social" x="131" y="26" xmlns="http://www.w3.org/2000/svg"><defs><style>.bcicon-tab{fill:#7c8588}</style></defs><path d="M14.111 16H8.889C8.398 16 8 15.552 8 15v-4c0-.552.398-1 .889-1h5.222c.491 0 .889.448.889 1v4c0 .552-.398 1-.889 1zm-.266-4.856H9.12v3.712h4.725v-3.712zM14.111 9H8.889C8.398 9 8 8.552 8 8V1c0-.552.398-1 .889-1h5.222c.491 0 .889.448.889 1v7c0 .552-.398 1-.889 1zm-.231-7.821H9.12v6.677h4.76V1.179zM6.111 16H.889C.398 16 0 15.552 0 15V8c0-.552.398-1 .889-1h5.222C6.602 7 7 7.448 7 8v7c0 .552-.398 1-.889 1zM5.88 8.179H1.155v6.642H5.88V8.179zM6.111 6H.889C.398 6 0 5.552 0 5V1c0-.552.398-1 .889-1h5.222C6.602 0 7 .448 7 1v4c0 .552-.398 1-.889 1zm-.227-4.899H1.116v3.79h4.768v-3.79z" id="bcpath-1" class="bcicon-tab" fill-rule="evenodd"/></svg><svg preserveAspectRatio="xMidYMid" width="30" height="25" viewBox="-5 -5 30 25" id="icon-tab-squad" x="68" y="34" xmlns="http://www.w3.org/2000/svg"><defs><style>.bdicon-tab{fill:#7c8588}</style></defs><path d="M19.267 14h-2.311c-.03-.46-.075-.88-.143-1.253h1.754c0-1.375-.945-2.565-2.311-3.124a2.87 2.87 0 0 1-.842.52c-.536-.462-1.214-.848-2.102-1.243.074-.114.119-.241.181-.361.301.239.642.387 1.007.387 1.113 0 2.054-1.283 2.054-2.801 0-1.518-.941-2.801-2.054-2.801-.237 0-.463.069-.678.175a6.051 6.051 0 0 0-.528-1.205A2.707 2.707 0 0 1 14.5 2c1.823 0 3.3 1.847 3.3 4.125 0 .93-.249 1.785-.664 2.475C18.841 9.427 20 11.03 20 12.875v.375c0 .414-.328.75-.733.75zM14 13.594v.469a.936.936 0 0 1-.933.937H.933A.936.936 0 0 1 0 14.063v-.469c0-2.307 1.475-4.31 3.645-5.345A5.925 5.925 0 0 1 2.8 5.156C2.8 2.309 4.68 0 7 0c2.32 0 4.2 2.309 4.2 5.156a5.925 5.925 0 0 1-.845 3.093C12.525 9.284 14 11.287 14 13.594zM7 1.406c-1.518 0-2.8 1.718-2.8 3.75 0 2.033 1.282 3.75 2.8 3.75 1.518 0 2.8-1.717 2.8-3.75 0-2.032-1.282-3.75-2.8-3.75zm2.417 7.963c-.684.592-1.516.944-2.417.944-.901 0-1.733-.352-2.417-.944-1.881.756-3.183 2.365-3.183 4.225h11.2c0-1.86-1.302-3.469-3.183-4.225z" id="bdpath-1" class="bdicon-tab" fill-rule="evenodd"/></svg><svg preserveAspectRatio="xMidYMid" width="25" height="26" viewBox="-5 -5 25 26" id="icon-user-dark" x="131" xmlns="http://www.w3.org/2000/svg"><defs><style>.beuser-dark{fill:#7c8588}</style></defs><path d="M11.094 8.799C11.66 7.88 12 6.74 12 5.5 12 2.462 9.985 0 7.5 0S3 2.462 3 5.5c0 1.24.34 2.38.906 3.299C1.58 9.903 0 12.04 0 14.5v.5a1 1 0 0 0 1 1h13a1 1 0 0 0 1-1v-.5c0-2.461-1.58-4.597-3.906-5.701zM7.5 1.5c1.626 0 3 1.832 3 4s-1.374 4-3 4-3-1.832-3-4 1.374-4 3-4zm-6 13c0-1.984 1.395-3.7 3.41-4.507C5.643 10.625 6.535 11 7.5 11c.965 0 1.857-.375 2.59-1.007 2.015.807 3.41 2.523 3.41 4.507h-12z" id="bepath-1" class="beuser-dark" fill-rule="evenodd"/></svg><svg preserveAspectRatio="xMidYMid" width="25" height="26" viewBox="-5 -5 25 26" id="icon-wheel" x="104" y="94" xmlns="http://www.w3.org/2000/svg"><defs><style>.bfcls-2{fill:#e0e0e0}</style></defs><path d="M14.817 5.811L13.19 7.459c.019.199.028.386.028.566-.002.26-.021.525-.056.793l1.396 1.446a.63.63 0 0 1 .092.743l-1.159 2.051a.587.587 0 0 1-.675.283l-1.908-.545a5.79 5.79 0 0 1-1.053.661l-.541 2.091a.6.6 0 0 1-.577.457h-.002l-2.303-.009a.6.6 0 0 1-.575-.458l-.478-1.867a5.748 5.748 0 0 1-1.536-.855l-1.737.474a.589.589 0 0 1-.67-.289L.291 10.942a.629.629 0 0 1 .099-.744l1.203-1.219a6.225 6.225 0 0 1-.08-.999 6.12 6.12 0 0 1 .056-.791L.172 5.742a.63.63 0 0 1-.092-.743l1.159-2.051a.592.592 0 0 1 .676-.283l1.907.544a5.746 5.746 0 0 1 1.602-.891l.52-1.867a.6.6 0 0 1 .574-.448h.003l2.256.009a.6.6 0 0 1 .575.458l.536 2.094c.394.196.769.438 1.118.726l2.095-.57a.588.588 0 0 1 .671.288l1.144 2.059a.63.63 0 0 1-.099.744zM12.964 4.03l-1.952.531a.58.58 0 0 1-.55-.135 4.622 4.622 0 0 0-1.308-.852.613.613 0 0 1-.349-.412L8.314 1.24l-1.345-.005-.492 1.748a.605.605 0 0 1-.406.414 4.569 4.569 0 0 0-1.726.958.59.59 0 0 1-.547.125L2.04 3.977 1.343 5.21l1.288 1.335c.14.145.201.351.163.551a4.81 4.81 0 0 0 .029 1.958.628.628 0 0 1-.164.572l-1.103 1.117.688 1.237 1.583-.432a.58.58 0 0 1 .538.124c.493.427 1.057.74 1.678.929.2.062.355.225.408.433l.444 1.734 1.384.005.496-1.918a.61.61 0 0 1 .351-.411 4.62 4.62 0 0 0 1.259-.793.581.581 0 0 1 .547-.124l1.759.502.696-1.233-1.288-1.335a.627.627 0 0 1-.163-.549c.056-.303.086-.603.087-.893a4.798 4.798 0 0 0-.053-.697.628.628 0 0 1 .172-.528l1.509-1.528-.687-1.236zm-5.476 6.557h-.009a2.453 2.453 0 0 1-1.771-.763 2.606 2.606 0 0 1-.728-1.83C4.985 6.575 6.11 5.42 7.488 5.42a2.458 2.458 0 0 1 1.78.763c.472.49.73 1.14.728 1.83-.005 1.419-1.13 2.574-2.508 2.574zM8.42 7.05a1.286 1.286 0 0 0-.927-.4c-.727 0-1.317.605-1.319 1.349-.001.361.134.702.382.958.247.257.576.398.927.4l.005.615v-.615c.722 0 1.311-.605 1.314-1.349a1.366 1.366 0 0 0-.382-.958z" id="bfpath-1" class="bfcls-2" fill-rule="evenodd"/></svg></svg>